REM GENRE "Black Metal"
REM DATE 2011
REM DISCID 65098C08
REM COMMENT "ExactAudioCopy v0.99pb5"
PERFORMER "Belphegor"
TITLE "Blood Magick Necromance (LE, Nuclear Blast  NB 2653-2/27361 26532)"
FILE "Belphegor - Blood Magick Necromance (LE, Nuclear Blast  NB 2653-2 27361 26532).flac" WAVE
  TRACK 01 AUDIO
    TITLE "In Blood - Devour This Sanctity"
    PERFORMER "Belphegor"
    INDEX 01 00:00:00
  TRACK 02 AUDIO
    TITLE "Rise to Fall and Fall to Rise"
    PERFORMER "Belphegor"
    INDEX 01 05:31:08
  TRACK 03 AUDIO
    TITLE "Blood Magick Necromance"
    PERFORMER "Belphegor"
    INDEX 01 11:32:38
  TRACK 04 AUDIO
    TITLE "Discipline Thorugh Punishment"
    PERFORMER "Belphegor"
    INDEX 01 18:32:39
  TRACK 05 AUDIO
    TITLE "Angeli Mortis De Profundis"
    PERFORMER "Belphegor"
    INDEX 01 22:37:50
  TRACK 06 AUDIO
    TITLE "Impaled Upon the Tongue of Sathan"
    PERFORMER "Belphegor"
    INDEX 01 25:37:50
  TRACK 07 AUDIO
    TITLE "Possessed Burning Eyes"
    PERFORMER "Belphegor"
    INDEX 01 31:19:65
  TRACK 08 AUDIO
    TITLE "Sado Messiah"
    PERFORMER "Belphegor"
    INDEX 01 36:53:46
